HIERARCHY
ROOT hip
{
  OFFSET 0.0 0.0 0.0
  CHANNELS 6 Xposition Yposition Zposition Zrotation Yrotation Xrotation
  JOINT abdomen
  {
    OFFSET 0.0 20.6881 -0.73152
    CHANNELS 3 Zrotation Xrotation Yrotation
    JOINT chest
    {
      OFFSET 0.0 11.7043 -0.48768
      CHANNELS 3 Zrotation Xrotation Yrotation
      JOINT neck
      {
        OFFSET 0.0 22.1894 -2.19456
        CHANNELS 3 Zrotation Xrotation Yrotation
        JOINT head
        {
          OFFSET -0.24384 7.07133 1.2192
          CHANNELS 3 Zrotation Xrotation Yrotation
          JOINT leftEye
          {
            OFFSET 4.14528 8.04674 8.04672
            CHANNELS 3 Zrotation Xrotation Yrotation
            End Site
            {
              OFFSET 1.0 0.0 0.0
            }
          }
          JOINT rightEye
          {
            OFFSET -3.6576 8.04674 8.04672
            CHANNELS 3 Zrotation Xrotation Yrotation
            End Site
            {
              OFFSET 1.0 0.0 0.0
            }
          }
        }
      }
      JOINT rCollar
      {
        OFFSET -2.68224 19.2634 -4.8768
        CHANNELS 3 Zrotation Xrotation Yrotation
        JOINT rShldr
        {
          OFFSET -8.77824 -1.95073 1.46304
          CHANNELS 3 Zrotation Xrotation Yrotation
          JOINT rForeArm
          {
            OFFSET -28.1742 -1.7115 0.48768
            CHANNELS 3 Zrotation Xrotation Yrotation
            JOINT rHand
            {
              OFFSET -22.5879 0.773209 7.07136
              CHANNELS 3 Zrotation Xrotation Yrotation
              JOINT rThumb1
              {
                OFFSET -1.2192 -0.487915 3.41376
                CHANNELS 3 Zrotation Xrotation Yrotation
                JOINT rThumb2
                {
                  OFFSET -3.37035 -0.52449 3.41376
                  CHANNELS 3 Zrotation Xrotation Yrotation
                  End Site
                  {
                    OFFSET -1.78271 -1.18214 1.43049
                  }
                }
              }
              JOINT rIndex1
              {
                OFFSET -7.75947 0.938293 5.60832
                CHANNELS 3 Zrotation Xrotation Yrotation
                JOINT rIndex2
                {
                  OFFSET -2.54057 -0.884171 1.56538
                  CHANNELS 3 Zrotation Xrotation Yrotation
                  End Site
                  {
                    OFFSET -1.62519 -0.234802 1.16502
                  }
                }
              }
              JOINT rMid1
              {
                OFFSET -8.24714 1.18213 3.41376
                CHANNELS 3 Zrotation Xrotation Yrotation
                JOINT rMid2
                {
                  OFFSET -3.10165 -0.590103 1.0647
                  CHANNELS 3 Zrotation Xrotation Yrotation
                  End Site
                  {
                    OFFSET -2.48547 -0.328903 0.83742
                  }
                }
              }
              JOINT rRing1
              {
                OFFSET -8.82822 0.546677 1.51678
                CHANNELS 3 Zrotation Xrotation Yrotation
                JOINT rRing2
                {
                  OFFSET -2.60934 -0.819778 -0.0198488
                  CHANNELS 3 Zrotation Xrotation Yrotation
                  End Site
                  {
                    OFFSET -2.33842 -0.294052 0.168128
                  }
                }
              }
              JOINT rPinky1
              {
                OFFSET -8.27202 -0.0477905 -0.4584
                CHANNELS 3 Zrotation Xrotation Yrotation
                JOINT rPinky2
                {
                  OFFSET -1.82734 -0.647385 -0.700984
                  CHANNELS 3 Zrotation Xrotation Yrotation
                  End Site
                  {
                    OFFSET -1.69225 -0.51767 -0.607171
                  }
                }
              }
            }
          }
        }
      }
      JOINT lCollar
      {
        OFFSET 2.68224 19.2634 -4.8768
        CHANNELS 3 Zrotation Xrotation Yrotation
        JOINT lShldr
        {
          OFFSET 8.77824 -1.95073 1.46304
          CHANNELS 3 Zrotation Xrotation Yrotation
          JOINT lForeArm
          {
            OFFSET 28.1742 -1.7115 0.48768
            CHANNELS 3 Zrotation Xrotation Yrotation
            JOINT lHand
            {
              OFFSET 22.5879 0.773209 7.07136
              CHANNELS 3 Zrotation Xrotation Yrotation
              JOINT lThumb1
              {
                OFFSET 1.2192 -0.487915 3.41376
                CHANNELS 3 Zrotation Xrotation Yrotation
                JOINT lThumb2
                {
                  OFFSET 3.37035 -0.52449 3.41376
                  CHANNELS 3 Zrotation Xrotation Yrotation
                  End Site
                  {
                    OFFSET 1.78271 -1.18214 1.43049
                  }
                }
              }
              JOINT lIndex1
              {
                OFFSET 7.75947 0.938293 5.60832
                CHANNELS 3 Zrotation Xrotation Yrotation
                JOINT lIndex2
                {
                  OFFSET 2.54057 -0.884171 1.56538
                  CHANNELS 3 Zrotation Xrotation Yrotation
                  End Site
                  {
                    OFFSET 1.62519 -0.234802 1.16502
                  }
                }
              }
              JOINT lMid1
              {
                OFFSET 8.24714 1.18213 3.41376
                CHANNELS 3 Zrotation Xrotation Yrotation
                JOINT lMid2
                {
                  OFFSET 3.10165 -0.590103 1.0647
                  CHANNELS 3 Zrotation Xrotation Yrotation
                  End Site
                  {
                    OFFSET 2.48547 -0.328903 0.83742
                  }
                }
              }
              JOINT lRing1
              {
                OFFSET 8.82822 0.546677 1.51678
                CHANNELS 3 Zrotation Xrotation Yrotation
                JOINT lRing2
                {
                  OFFSET 2.60934 -0.819778 -0.0198488
                  CHANNELS 3 Zrotation Xrotation Yrotation
                  End Site
                  {
                    OFFSET 2.33842 -0.294052 0.168128
                  }
                }
              }
              JOINT lPinky1
              {
                OFFSET 8.27202 -0.0477905 -0.4584
                CHANNELS 3 Zrotation Xrotation Yrotation
                JOINT lPinky2
                {
                  OFFSET 1.82734 -0.647385 -0.700984
                  CHANNELS 3 Zrotation Xrotation Yrotation
                  End Site
                  {
                    OFFSET 1.69225 -0.51767 -0.607171
                  }
                }
              }
            }
          }
        }
      }
    }
  }
  JOINT rButtock
  {
    OFFSET -8.77824 4.35084 1.2192
    CHANNELS 3 Zrotation Xrotation Yrotation
    JOINT rThigh
    {
      OFFSET 0.0 -1.70687 -2.19456
      CHANNELS 3 Zrotation Xrotation Yrotation
      JOINT rShin
      {
        OFFSET 0.0 -36.8199 0.73152
        CHANNELS 3 Zrotation Xrotation Yrotation
        JOINT rFoot
        {
          OFFSET 0.73152 -45.1104 -5.12064
          CHANNELS 3 Zrotation Xrotation Yrotation
          End Site
          {
            OFFSET -1.1221 -3.69964 12.103
          }
        }
      }
    }
  }
  JOINT lButtock
  {
    OFFSET 8.77824 4.35084 1.2192
    CHANNELS 3 Zrotation Xrotation Yrotation
    JOINT lThigh
    {
      OFFSET 0.0 -1.70687 -2.19456
      CHANNELS 3 Zrotation Xrotation Yrotation
      JOINT lShin
      {
        OFFSET 0.0 -36.8199 0.73152
        CHANNELS 3 Zrotation Xrotation Yrotation
        JOINT lFoot
        {
          OFFSET -0.73152 -45.1104 -5.12064
          CHANNELS 3 Zrotation Xrotation Yrotation
          End Site
          {
            OFFSET 1.1221 -3.69964 12.103
          }
        }
      }
    }
  }
}
MOTION
Frames: 9
Frame Time: 0.00833333
64.2532 83.0192 24.66746 704.095 72.0419 351.434 7.21682 -8.02753 7.32318 -1.58808 -18.6292 2.21267 9.42455 13.7363 -4.44295 -29.6328 -7.04944 -9.9149 -0.0 0.0 0.0 -0.0 0.0 0.0 -6.88009e-14 -1.44265e-12 -3.3731e-13 89.5855 64.045 -22.1948 -17.2105 -9.86155 32.2745 -0.0737279 -7.57697 -1.07168 7.90208e-10 5.46047e-10 1.06594e-09 1.35423e-09 9.41636e-10 1.8548e-09 7.90216e-10 5.46041e-10 1.06593e-09 7.73091 5.47488 0.417314 7.90213e-10 5.46039e-10 1.06594e-09 2.90554 0.965183 0.102902 7.90214e-10 5.46036e-10 1.06594e-09 10.2786 0.731801 0.0259123 7.90202e-10 5.46038e-10 1.06594e-09 2.22167 -0.733487 -0.20892 -6.88581e-14 -1.44264e-12 -3.37486e-13 -75.8468 -4.5985 29.4524 9.49933 -3.83331 -16.8813 1.34213 30.9681 -4.83752 1.62557e-09 -1.35923e-09 8.42882e-11 2.8106e-09 -2.36924e-09 1.07699e-10 1.62557e-09 -1.35923e-09 8.42948e-11 -7.73091 5.47488 -0.417314 1.62558e-09 -1.35923e-09 8.42818e-11 -2.90554 0.965183 -0.102902 1.62557e-09 -1.35923e-09 8.42833e-11 -10.2786 0.731801 -0.0259123 1.62558e-09 -1.35923e-09 8.42769e-11 -2.22167 -0.733487 0.20892 -2.03217e-16 0.0 -3.88251e-19 14.741 4.48384 4.12793 0.0579509 24.6984 0.722969 -2.42627 -6.61636 -18.9948 2.03217e-16 0.0 3.88251e-19 -5.0353 -20.5484 -17.8951 -0.0158205 15.2347 -0.941046 2.85058 -11.0192 14.7516
66.0057 83.3524 24.50525 706.481 72.2239 353.292 6.24683 -7.80197 6.93955 -1.42234 -18.629 2.12701 11.2487 14.6187 -4.54751 -32.798 -7.6758 -10.4303 -0.0 0.0 0.0 -0.0 0.0 0.0 -4.29206e-14 -5.85818e-13 -1.79602e-13 91.115 63.6062 -24.2427 -17.2506 -9.90311 32.36 -0.0828558 -8.18391 -1.15814 1.87917e-09 6.20886e-10 4.07925e-10 3.24185e-09 1.07073e-09 7.18005e-10 1.87918e-09 6.20876e-10 4.07909e-10 7.73091 5.47488 0.417314 1.87917e-09 6.20873e-10 4.07922e-10 2.90554 0.965183 0.102902 1.87917e-09 6.2087e-10 4.07923e-10 10.2786 0.731801 0.0259123 1.87916e-09 6.20873e-10 4.07928e-10 2.22167 -0.733487 -0.20892 -4.29572e-14 -5.85818e-13 -1.79751e-13 -75.9275 -4.74536 29.5293 9.51561 -3.85208 -16.8961 1.42228 31.7751 -4.99417 9.36301e-10 3.11694e-13 1.23261e-09 1.64187e-09 -1.75344e-11 2.10375e-09 9.36298e-10 3.11694e-13 1.23262e-09 -7.73091 5.47488 -0.417314 9.3631e-10 3.08216e-13 1.2326e-09 -2.90554 0.965183 -0.102902 9.36297e-10 3.08315e-13 1.23261e-09 -10.2786 0.731801 -0.0259123 9.36312e-10 3.11297e-13 1.2326e-09 -2.22167 -0.733487 0.20892 -2.03217e-16 0.0 -3.88251e-19 12.2813 3.47631 1.57891 0.0429583 27.4125 0.728953 -1.40119 -2.29422 -18.5962 2.03217e-16 0.0 3.88251e-19 -6.38426 -18.0435 -18.584 -0.0100597 13.8645 -0.790414 3.13515 -11.8556 15.029
67.6532 83.6033 24.38416 708.604 72.3453 354.896 5.00746 -7.47597 6.46791 -1.10462 -18.6779 2.03579 9.8921 13.1724 -4.09262 -28.6065 -3.65003 -8.86674 -0.0 0.0 0.0 -0.0 0.0 0.0 2.43119e-15 -3.42681e-13 -4.33378e-14 92.1369 63.3019 -25.9901 -17.3167 -9.97037 32.5049 -0.0977863 -9.00186 -1.27528 1.5247e-09 4.8361e-10 1.83265e-10 2.6329e-09 8.35061e-10 3.24513e-10 1.5247e-09 4.83603e-10 1.8325e-10 7.73091 5.47488 0.417314 1.5247e-09 4.83599e-10 1.83264e-10 2.90554 0.965183 0.102902 1.5247e-09 4.83596e-10 1.83266e-10 10.2786 0.731801 0.0259123 1.52469e-09 4.83599e-10 1.83273e-10 2.22167 -0.733487 -0.20892 2.38058e-15 -3.42682e-13 -4.34989e-14 -76.5926 -3.84514 29.5228 9.79465 -4.02321 -17.4087 1.26043 30.3161 -4.70511 4.34228e-10 6.04571e-10 1.2449e-09 7.76158e-10 1.03267e-09 2.13527e-09 4.34225e-10 6.04572e-10 1.24491e-09 -7.73091 5.47488 -0.417314 4.34237e-10 6.04568e-10 1.24489e-09 -2.90554 0.965183 -0.102902 4.34223e-10 6.04569e-10 1.24489e-09 -10.2786 0.731801 -0.0259123 4.34239e-10 6.04572e-10 1.24489e-09 -2.22167 -0.733487 0.20892 -2.03217e-16 0.0 -3.88251e-19 9.62996 2.18222 -0.577642 -0.0195839 30.5535 0.751698 -0.81423 0.942261 -19.2266 2.03217e-16 0.0 3.88251e-19 -8.07476 -16.0575 -19.0945 -0.00489395 13.2275 -0.653435 3.32706 -12.64 15.193
69.2157 83.72 24.17614 711.42 72.4943 357.236 3.61583 -7.05004 5.9346 -0.676514 -18.7563 1.9391 6.51176 10.1569 -3.29167 -20.145 3.54094 -6.06345 -0.0 0.0 0.0 -0.0 0.0 0.0 6.61582e-14 -4.27423e-13 9.90476e-14 92.7819 63.0787 -27.5668 -17.4166 -10.0722 32.726 -0.122841 -10.1044 -1.4344 3.17669e-10 2.08702e-10 1.52772e-10 5.50125e-10 3.62758e-10 2.62695e-10 3.17669e-10 2.08699e-10 1.52759e-10 7.73091 5.47488 0.417314 3.17671e-10 2.08695e-10 1.52775e-10 2.90554 0.965183 0.102902 3.1767e-10 2.08693e-10 1.52777e-10 10.2786 0.731801 0.0259123 3.17657e-10 2.08695e-10 1.52787e-10 2.22167 -0.733487 -0.20892 6.60721e-14 -4.27426e-13 9.88519e-14 -77.7542 -2.04791 29.4388 10.2966 -4.3308 -18.3493 0.971012 27.1907 -4.12504 -5.80573e-11 8.90719e-10 6.37982e-10 -8.37773e-11 1.53624e-09 1.09775e-09 -5.80576e-11 8.90721e-10 6.3799e-10 -7.73091 5.47488 -0.417314 -5.80479e-11 8.90717e-10 6.37972e-10 -2.90554 0.965183 -0.102902 -5.80616e-11 8.9072e-10 6.37977e-10 -10.2786 0.731801 -0.0259123 -5.80472e-11 8.90722e-10 6.37967e-10 -2.22167 -0.733487 0.20892 -2.03217e-16 0.0 -3.88251e-19 6.77049 0.611251 -2.51513 -0.117869 34.0965 0.787272 -0.371991 3.50078 -20.5635 2.03217e-16 0.0 3.88251e-19 -9.98316 -14.3624 -19.548 -0.00261398 13.0035 -0.520394 3.48621 -13.4154 15.3601
70.69730000000001 83.7152 23.85754 715.302 72.6352 360.678 2.17035 -6.56058 5.41457 -0.245526 -18.8509 1.84106 2.84908 6.85564 -2.4489 -11.6795 11.1382 -3.09869 -0.0 0.0 0.0 -0.0 0.0 0.0 1.14925e-13 -5.64055e-13 2.04283e-13 93.0508 62.7065 -28.7916 -17.4897 -10.1471 32.8882 -0.153658 -11.1988 -1.59395 -9.5659e-10 -6.55773e-11 1.89219e-10 -1.6497e-09 -1.08832e-10 3.17265e-10 -9.56596e-10 -6.55743e-11 1.89208e-10 7.73091 5.47488 0.417314 -9.56591e-10 -6.55791e-11 1.89224e-10 2.90554 0.965183 0.102902 -9.56592e-10 -6.55806e-11 1.89227e-10 10.2786 0.731801 0.0259123 -9.56603e-10 -6.55781e-11 1.89239e-10 2.22167 -0.733487 -0.20892 1.14801e-13 -5.64059e-13 2.04052e-13 -78.9912 0.102486 29.2755 10.889 -4.70239 -19.4765 0.709379 23.5003 -3.49385 -3.78403e-10 9.17451e-10 -1.13104e-10 -6.49797e-10 1.59057e-09 -1.9124e-10 -3.78401e-10 9.17454e-10 -1.13094e-10 -7.73091 5.47488 -0.417314 -3.78394e-10 9.1745e-10 -1.13112e-10 -2.90554 0.965183 -0.102902 -3.78407e-10 9.17453e-10 -1.13107e-10 -10.2786 0.731801 -0.0259123 -3.78394e-10 9.17456e-10 -1.1312e-10 -2.22167 -0.733487 0.20892 -2.03217e-16 0.0 -3.88251e-19 3.88725 -1.20018 -4.23087 -0.221172 37.6311 0.844186 -0.145171 5.06644 -22.0996 2.03217e-16 0.0 3.88251e-19 -11.9243 -12.9627 -19.8497 -0.000493871 13.0625 -0.397569 3.59807 -14.1662 15.4291
72.1092 83.6549 23.5937 719.208 72.6719 364.082 0.765651 -6.04469 4.98222 0.0809668 -18.9487 1.7458 0.521016 4.56188 -1.8302 -6.48451 16.2764 -0.946686 -0.0 0.0 0.0 -0.0 0.0 0.0 1.15397e-13 -4.76585e-13 2.29099e-13 92.9192 61.962 -29.464 -17.4764 -10.1345 32.8558 -0.179708 -11.9926 -1.71075 -1.51276e-09 -2.00963e-10 1.65376e-10 -2.60979e-09 -3.42364e-10 2.7294e-10 -1.51277e-09 -2.00958e-10 1.65367e-10 7.73091 5.47488 0.417314 -1.51276e-09 -2.00962e-10 1.65382e-10 2.90554 0.965183 0.102902 -1.51276e-09 -2.00963e-10 1.65386e-10 10.2786 0.731801 0.0259123 -1.51277e-09 -2.00961e-10 1.65398e-10 2.22167 -0.733487 -0.20892 1.1525e-13 -4.76589e-13 2.28851e-13 -79.8803 2.06452 28.9947 11.4487 -5.06944 -20.5477 0.536605 20.3537 -2.9886 -3.64657e-10 7.43458e-10 -5.33315e-10 -6.33762e-10 1.29305e-09 -9.14128e-10 -3.64655e-10 7.43461e-10 -5.33306e-10 -7.73091 5.47488 -0.417314 -3.64649e-10 7.43458e-10 -5.33322e-10 -2.90554 0.965183 -0.102902 -3.6466e-10 7.43461e-10 -5.33318e-10 -10.2786 0.731801 -0.0259123 -3.64649e-10 7.43463e-10 -5.33331e-10 -2.22167 -0.733487 0.20892 -2.03217e-16 0.0 -3.88251e-19 1.17483 -3.21708 -5.72375 -0.299408 40.7464 0.930357 -0.321267 5.37075 -23.318 2.03217e-16 0.0 3.88251e-19 -13.7184 -11.8613 -19.9061 0.00563027 13.2744 -0.291633 3.64276 -14.8782 15.2973
73.3541 83.4809 23.42136 722.716 72.5826 367.19 -0.639738 -5.50615 4.66872 0.25635 -19.0561 1.65219 -0.00368025 3.74916 -1.51619 -5.05079 17.9337 -0.0407914 -0.0 0.0 0.0 -0.0 0.0 0.0 3.43655e-14 3.12827e-14 1.37026e-13 92.4199 60.7363 -29.5869 -17.3662 -10.0198 32.616 -0.192573 -12.3619 -1.76538 -9.33597e-10 -1.24952e-10 4.17129e-11 -1.61002e-09 -2.13693e-10 6.44921e-11 -9.33604e-10 -1.24948e-10 4.17035e-11 7.73091 5.47488 0.417314 -9.33599e-10 -1.24952e-10 4.17186e-11 2.90554 0.965183 0.102902 -9.33599e-10 -1.24952e-10 4.172e-11 10.2786 0.731801 0.0259123 -9.3361e-10 -1.24948e-10 4.17325e-11 2.22167 -0.733487 -0.20892 3.42194e-14 3.12787e-14 1.36792e-13 -80.3262 3.89023 28.608 12.0175 -5.46823 -21.6293 0.405459 17.7933 -2.58706 1.91424e-10 2.75291e-10 -3.66076e-10 3.27391e-10 4.79013e-10 -6.30621e-10 1.91424e-10 2.75293e-10 -3.66069e-10 -7.73091 5.47488 -0.417314 1.9143e-10 2.7529e-10 -3.66081e-10 -2.90554 0.965183 -0.102902 1.91421e-10 2.75292e-10 -3.66078e-10 -10.2786 0.731801 -0.0259123 1.91432e-10 2.75295e-10 -3.66091e-10 -2.22167 -0.733487 0.20892 -2.03217e-16 0.0 -3.88251e-19 -1.36902 -5.482 -6.99357 -0.346215 43.4619 1.06332 -1.22986 3.93847 -24.1879 2.03217e-16 0.0 3.88251e-19 -15.4035 -11.1341 -19.6468 0.0186576 13.7069 -0.198705 3.57984 -15.5347 14.8916
74.4012 83.1709 23.30389 725.69 72.4164 369.95 -2.07617 -4.92775 4.43042 0.343779 -19.1768 1.55873 0.354401 3.68796 -1.35048 -5.3729 17.7008 0.192412 -0.0 0.0 0.0 -0.0 0.0 0.0 -1.02284e-13 7.71453e-13 -4.0549e-14 91.6067 59.1744 -29.314 -17.1873 -9.83311 32.2338 -0.19617 -12.4783 -1.78251 2.92781e-10 7.68384e-11 -1.12048e-10 5.06569e-10 1.30314e-10 -1.90655e-10 2.92779e-10 7.68382e-11 -1.12058e-10 7.73091 5.47488 0.417314 2.9278e-10 7.68357e-11 -1.12044e-10 2.90554 0.965183 0.102902 2.92781e-10 7.68357e-11 -1.12046e-10 10.2786 0.731801 0.0259123 2.9277e-10 7.68412e-11 -1.12034e-10 2.22167 -0.733487 -0.20892 -1.02418e-13 7.7145e-13 -4.07509e-14 -80.5289 5.81452 28.1326 12.6288 -5.91271 -22.8084 0.291565 15.3136 -2.20582 1.14836e-09 -4.81985e-10 9.19586e-11 1.98458e-09 -8.3994e-10 1.49151e-10 1.14835e-09 -4.81986e-10 9.19637e-11 -7.73091 5.47488 -0.417314 1.14836e-09 -4.81988e-10 9.19566e-11 -2.90554 0.965183 -0.102902 1.14836e-09 -4.81988e-10 9.19579e-11 -10.2786 0.731801 -0.0259123 1.14837e-09 -4.81984e-10 9.19464e-11 -2.22167 -0.733487 0.20892 -2.03217e-16 0.0 -3.88251e-19 -3.81912 -7.99222 -8.05474 -0.386798 45.9534 1.24035 -2.80173 1.10074 -24.9749 2.03217e-16 0.0 3.88251e-19 -17.066 -10.747 -19.1309 0.0337362 14.3953 -0.116655 3.42014 -16.1487 14.2781
75.3524 82.7577 23.22217 728.046 72.2101 372.119 -3.43457 -4.31549 4.22906 0.40074 -19.2934 1.46911 1.06285 3.86988 -1.23224 -6.43815 16.6448 0.16257 -0.0 0.0 0.0 -0.0 0.0 0.0 -2.39248e-13 1.44333e-12 -2.4511e-13 90.51 57.4306 -28.6921 -16.9365 -9.58031 31.6911 -0.195799 -12.4919 -1.78437 1.59368e-09 3.05486e-10 -2.59252e-10 2.75195e-09 5.2048e-10 -4.33805e-10 1.59368e-09 3.05482e-10 -2.59262e-10 7.73091 5.47488 0.417314 1.59368e-09 3.05481e-10 -2.59251e-10 2.90554 0.965183 0.102902 1.59368e-09 3.05481e-10 -2.59255e-10 10.2786 0.731801 0.0259123 1.59367e-09 3.05488e-10 -2.59245e-10 2.22167 -0.733487 -0.20892 -2.39364e-13 1.44333e-12 -2.45279e-13 -80.5082 7.56831 27.4908 13.1655 -6.31045 -23.8709 0.212157 13.2067 -1.88894 2.14371e-09 -1.32191e-09 4.85983e-10 3.70772e-09 -2.302e-09 8.1713e-10 2.1437e-09 -1.32191e-09 4.85985e-10 -7.73091 5.47488 -0.417314 2.14371e-09 -1.32191e-09 4.85983e-10 -2.90554 0.965183 -0.102902 2.14371e-09 -1.32191e-09 4.85983e-10 -10.2786 0.731801 -0.0259123 2.14372e-09 -1.32191e-09 4.85973e-10 -2.22167 -0.733487 0.20892 -2.03217e-16 0.0 -3.88251e-19 -6.0754 -10.6483 -8.92661 -0.429221 48.045 1.43152 -4.59591 -2.2108 -25.5993 2.03217e-16 0.0 3.88251e-19 -18.5948 -10.5393 -18.4613 0.0458225 15.1608 -0.0553151 3.22034 -16.7512 13.5629
